<svg xmlns="http://www.w3.org/2000/svg" width="24" height="24" viewBox="0 0 24 24">
  <g>
    <clipPath id="clip0">
      <path d="M0,0h24v24h-24z"/>
    </clipPath>
    <path d="M6,19.251C5.716,19.251 5.479,19.155 5.287,18.963C5.095,18.771 5,18.534 5,18.25C5,17.967 5.095,17.73 5.287,17.538C5.479,17.347 5.716,17.25 6,17.25C6.283,17.25 6.521,17.347 6.713,17.538C6.904,17.73 7,17.967 7,18.25C7,18.534 6.904,18.771 6.713,18.963C6.521,19.155 6.283,19.251 6,19.251ZM18,19.251C17.716,19.251 17.479,19.155 17.288,18.963C17.096,18.771 17,18.534 17,18.25C17,17.967 17.096,17.73 17.288,17.538C17.479,17.347 17.716,17.25 18,17.25C18.283,17.25 18.52,17.347 18.712,17.538C18.904,17.73 19,17.967 19,18.25C19,18.534 18.904,18.771 18.712,18.963C18.52,19.155 18.283,19.251 18,19.251ZM9,23.251C8.716,23.251 8.479,23.155 8.288,22.963C8.096,22.771 8,22.534 8,22.251C8,21.967 8.096,21.73 8.288,21.539C8.479,21.347 8.716,21.251 9,21.251C9.283,21.251 9.521,21.347 9.713,21.539C9.904,21.73 10,21.967 10,22.251C10,22.534 9.904,22.771 9.713,22.963C9.521,23.155 9.283,23.251 9,23.251ZM12,19.251C11.716,19.251 11.479,19.155 11.288,18.963C11.096,18.771 11,18.534 11,18.25C11,17.967 11.096,17.73 11.288,17.538C11.479,17.347 11.716,17.25 12,17.25C12.283,17.25 12.521,17.347 12.713,17.538C12.904,17.73 13,17.967 13,18.25C13,18.534 12.904,18.771 12.713,18.963C12.521,19.155 12.283,19.251 12,19.251ZM15,23.251C14.716,23.251 14.479,23.155 14.288,22.963C14.096,22.771 14,22.534 14,22.251C14,21.967 14.096,21.73 14.288,21.539C14.479,21.347 14.716,21.251 15,21.251C15.283,21.251 15.521,21.347 15.713,21.539C15.904,21.73 16,21.967 16,22.251C16,22.534 15.904,22.771 15.713,22.963C15.521,23.155 15.283,23.251 15,23.251Z" fill="#000000"/>
    <path d="M17.808,2.712C18.99,3.792 19.796,5.221 20.107,6.791C21.239,6.944 22.27,7.521 22.991,8.406C23.713,9.29 24.072,10.416 23.994,11.555C23.917,12.694 23.41,13.762 22.575,14.54C21.741,15.319 20.641,15.752 19.5,15.751H5.25C4.535,15.75 3.829,15.603 3.173,15.319C2.517,15.035 1.926,14.621 1.436,14.101C0.947,13.581 0.568,12.966 0.324,12.295C0.08,11.623 -0.025,10.909 0.017,10.196C0.058,9.483 0.245,8.785 0.565,8.147C0.886,7.508 1.333,6.942 1.88,6.482C2.427,6.022 3.062,5.679 3.746,5.473C4.43,5.268 5.149,5.204 5.859,5.285C6.492,3.815 7.578,2.586 8.96,1.777C10.341,0.968 11.946,0.623 13.538,0.791C15.13,0.959 16.626,1.632 17.808,2.712Z" fill="#000000"/>
  </g>
</svg>

