<svg xmlns="http://www.w3.org/2000/svg" width="24" height="24" viewBox="0 0 24 24">
  <path d="M12,5C11.717,5 11.479,4.904 11.288,4.712C11.096,4.521 11,4.283 11,4V2C11,1.717 11.096,1.479 11.288,1.287C11.479,1.096 11.717,1 12,1C12.283,1 12.521,1.096 12.713,1.287C12.904,1.479 13,1.717 13,2V4C13,4.283 12.904,4.521 12.713,4.712C12.521,4.904 12.283,5 12,5ZM16.95,7.05C16.767,6.867 16.675,6.637 16.675,6.362C16.675,6.087 16.767,5.85 16.95,5.65L18.35,4.225C18.55,4.025 18.787,3.925 19.062,3.925C19.337,3.925 19.575,4.025 19.775,4.225C19.958,4.408 20.05,4.642 20.05,4.925C20.05,5.208 19.958,5.442 19.775,5.625L18.35,7.05C18.167,7.233 17.933,7.325 17.65,7.325C17.367,7.325 17.133,7.233 16.95,7.05V7.05ZM20,13C19.717,13 19.479,12.904 19.288,12.712C19.096,12.521 19,12.283 19,12C19,11.717 19.096,11.479 19.288,11.287C19.479,11.096 19.717,11 20,11H22C22.283,11 22.521,11.096 22.712,11.287C22.904,11.479 23,11.717 23,12C23,12.283 22.904,12.521 22.712,12.712C22.521,12.904 22.283,13 22,13H20ZM12,23C11.717,23 11.479,22.904 11.288,22.712C11.096,22.521 11,22.283 11,22V20C11,19.717 11.096,19.479 11.288,19.288C11.479,19.096 11.717,19 12,19C12.283,19 12.521,19.096 12.713,19.288C12.904,19.479 13,19.717 13,20V22C13,22.283 12.904,22.521 12.713,22.712C12.521,22.904 12.283,23 12,23ZM5.65,7.05L4.225,5.65C4.025,5.45 3.925,5.208 3.925,4.925C3.925,4.642 4.025,4.408 4.225,4.225C4.408,4.042 4.642,3.95 4.925,3.95C5.208,3.95 5.442,4.042 5.625,4.225L7.05,5.65C7.233,5.833 7.325,6.067 7.325,6.35C7.325,6.633 7.233,6.867 7.05,7.05C6.85,7.233 6.617,7.325 6.35,7.325C6.083,7.325 5.85,7.233 5.65,7.05V7.05ZM18.35,19.775L16.95,18.35C16.767,18.15 16.675,17.913 16.675,17.638C16.675,17.363 16.767,17.133 16.95,16.95C17.133,16.767 17.363,16.675 17.638,16.675C17.913,16.675 18.15,16.767 18.35,16.95L19.775,18.35C19.975,18.533 20.071,18.767 20.062,19.05C20.054,19.333 19.958,19.575 19.775,19.775C19.575,19.975 19.333,20.075 19.05,20.075C18.767,20.075 18.533,19.975 18.35,19.775ZM2,13C1.717,13 1.479,12.904 1.288,12.712C1.096,12.521 1,12.283 1,12C1,11.717 1.096,11.479 1.288,11.287C1.479,11.096 1.717,11 2,11H4C4.283,11 4.521,11.096 4.713,11.287C4.904,11.479 5,11.717 5,12C5,12.283 4.904,12.521 4.713,12.712C4.521,12.904 4.283,13 4,13H2ZM4.225,19.775C4.042,19.592 3.95,19.358 3.95,19.075C3.95,18.792 4.042,18.558 4.225,18.375L5.65,16.95C5.833,16.767 6.063,16.675 6.338,16.675C6.613,16.675 6.85,16.767 7.05,16.95C7.25,17.15 7.35,17.388 7.35,17.663C7.35,17.938 7.25,18.175 7.05,18.375L5.65,19.775C5.45,19.975 5.208,20.075 4.925,20.075C4.642,20.075 4.408,19.975 4.225,19.775V19.775ZM12,18C10.333,18 8.917,17.417 7.75,16.25C6.583,15.083 6,13.667 6,12C6,10.333 6.583,8.917 7.75,7.75C8.917,6.583 10.333,6 12,6C13.667,6 15.083,6.583 16.25,7.75C17.417,8.917 18,10.333 18,12C18,13.667 17.417,15.083 16.25,16.25C15.083,17.417 13.667,18 12,18Z" fill="#000000"/>
</svg>

