<svg width="24" height="24" viewBox="0 0 24 24" xmlns="http://www.w3.org/2000/svg">
  <path d="M20.25,5.25H16.5V4.5C16.497,3.904 16.26,3.333 15.838,2.912C15.417,2.49 14.846,2.252 14.25,2.25H9.75C9.154,2.252 8.583,2.49 8.162,2.912C7.74,3.333 7.502,3.904 7.5,4.5V5.25H3.75C3.551,5.25 3.36,5.329 3.22,5.47C3.079,5.61 3,5.801 3,6C3,6.199 3.079,6.39 3.22,6.53C3.36,6.671 3.551,6.75 3.75,6.75H4.5L5.484,20.25C5.484,20.648 5.642,21.029 5.924,21.311C6.205,21.592 6.587,21.75 6.984,21.75H17.004C17.402,21.75 17.783,21.592 18.065,21.311C18.346,21.029 18.504,20.648 18.504,20.25L19.5,6.75H20.25C20.449,6.75 20.64,6.671 20.78,6.53C20.921,6.39 21,6.199 21,6C21,5.801 20.921,5.61 20.78,5.47C20.64,5.329 20.449,5.25 20.25,5.25ZM10.5,16.5C10.5,16.699 10.421,16.89 10.28,17.03C10.14,17.171 9.949,17.25 9.75,17.25C9.551,17.25 9.36,17.171 9.22,17.03C9.079,16.89 9,16.699 9,16.5V10.5C9,10.301 9.079,10.11 9.22,9.97C9.36,9.829 9.551,9.75 9.75,9.75C9.949,9.75 10.14,9.829 10.28,9.97C10.421,10.11 10.5,10.301 10.5,10.5V16.5ZM15,16.5C15,16.699 14.921,16.89 14.78,17.03C14.64,17.171 14.449,17.25 14.25,17.25C14.051,17.25 13.86,17.171 13.72,17.03C13.579,16.89 13.5,16.699 13.5,16.5V10.5C13.5,10.301 13.579,10.11 13.72,9.97C13.86,9.829 14.051,9.75 14.25,9.75C14.449,9.75 14.64,9.829 14.78,9.97C14.921,10.11 15,10.301 15,10.5V16.5ZM15,5.25H9V4.5C9,4.301 9.079,4.11 9.22,3.97C9.36,3.829 9.551,3.75 9.75,3.75H14.25C14.449,3.75 14.64,3.829 14.78,3.97C14.921,4.11 15,4.301 15,4.5V5.25Z" fill="#FF7D4F"/>
</svg>

