<svg width="20" height="20" viewBox="0 0 20 20" xmlns="http://www.w3.org/2000/svg">
  <defs>
    <clipPath id="clip-master-big">
      <path d="M9.746,0L10.254,0A9.746,9.746 0,0 1,20 9.746L20,10.254A9.746,9.746 0,0 1,10.254 20L9.746,20A9.746,9.746 0,0 1,0 10.254L0,9.746A9.746,9.746 0,0 1,9.746 0z"/>
    </clipPath>
  </defs>
  <g clip-path="url(#clip-master-big)">
    <path d="M10,20C15.524,20 20,15.523 20,10C20,4.477 15.524,0 10,0C4.476,0 0,4.477 0,10C0,15.523 4.476,20 10,20ZM5.618,14.542H3.75V5.683H5.264L5.426,6.923H5.472C6.23,6.118 7.116,5.457 8.213,5.457C9.531,5.457 10.273,6.069 10.644,7.084C11.53,6.166 12.432,5.457 13.545,5.457C15.397,5.457 16.25,6.73 16.25,8.969V14.542H14.398V9.211C14.398,7.664 13.929,7.068 12.933,7.068C12.321,7.068 11.676,7.455 10.934,8.26V14.542H9.082V9.211C9.082,7.664 8.613,7.068 7.601,7.068C7.005,7.068 6.328,7.455 5.618,8.26V14.542Z" fill="#6F916F" fill-rule="evenodd"/>
  </g>
</svg>

