<svg width="20" height="20" viewBox="0 0 20 20" xmlns="http://www.w3.org/2000/svg">
  <defs>
    <clipPath id="clip-play-select">
      <path d="M0,0h20v20h-20z"/>
    </clipPath>
  </defs>
  <g clip-path="url(#clip-play-select)">
    <path d="M10.001,19.999C8.618,19.999 7.318,19.736 6.102,19.211C4.885,18.686 3.827,17.974 2.927,17.074C2.027,16.174 1.315,15.116 0.79,13.899C0.265,12.682 0.002,11.383 0.002,9.999C0.002,8.616 0.265,7.316 0.79,6.1C1.315,4.883 2.027,3.825 2.927,2.925C3.827,2.025 4.885,1.312 6.102,0.787C7.318,0.262 8.618,0 10.001,0C11.384,0 12.684,0.262 13.901,0.787C15.118,1.312 16.176,2.025 17.076,2.925C17.976,3.825 18.688,4.883 19.213,6.1C19.738,7.316 20.001,8.616 20.001,9.999C20.001,11.383 19.738,12.682 19.213,13.899C18.688,15.116 17.976,16.174 17.076,17.074C16.176,17.974 15.118,18.686 13.901,19.211C12.684,19.736 11.384,19.999 10.001,19.999Z" fill="#6F916F"/>
    <path d="M12.931,11.009L8.426,13.905C8.027,14.162 7.502,13.875 7.502,13.401V6.599C7.502,6.124 8.027,5.838 8.426,6.094L12.931,8.99C13.666,9.463 13.666,10.537 12.931,11.009Z" fill="#ffffff"/>
  </g>
</svg>

