<svg width="60" height="60" viewBox="0 0 60 60" xmlns="http://www.w3.org/2000/svg">
  <path d="M30,55C26.542,55 23.292,54.343 20.25,53.03C17.208,51.718 14.563,49.938 12.313,47.688C10.063,45.438 8.282,42.792 6.97,39.75C5.657,36.708 5,33.458 5,30C5,26.542 5.657,23.292 6.97,20.25C8.282,17.208 10.063,14.563 12.313,12.313C14.563,10.063 17.208,8.281 20.25,6.968C23.292,5.656 26.542,5 30,5C33.458,5 36.708,5.656 39.75,6.968C42.792,8.281 45.438,10.063 47.688,12.313C49.938,14.563 51.718,17.208 53.03,20.25C54.343,23.292 55,26.542 55,30C55,33.458 54.343,36.708 53.03,39.75C51.718,42.792 49.938,45.438 47.688,47.688C45.438,49.938 42.792,51.718 39.75,53.03C36.708,54.343 33.458,55 30,55Z" fill="#000000" fill-opacity="0.75"/>
  <path d="M27.001,20H21.834C21.282,20 20.834,20.448 20.834,21V39C20.834,39.552 21.282,40 21.834,40H27.001C27.277,40 27.501,39.776 27.501,39.5V20.5C27.501,20.224 27.277,20 27.001,20Z" fill="#ffffff"/>
  <path d="M38.167,20H33C32.724,20 32.5,20.224 32.5,20.5V39.5C32.5,39.776 32.724,40 33,40H38.167C38.719,40 39.167,39.552 39.167,39V21C39.167,20.448 38.719,20 38.167,20Z" fill="#ffffff"/>
</svg>

