<svg width="24" height="24" viewBox="0 0 24 24" xmlns="http://www.w3.org/2000/svg">
  <!-- PARITY: Converted from reef-b-app's ic_add_btn.xml -->
  <!-- 24×24dp add button icon with green circle background -->
  <circle cx="12" cy="12" r="12" fill="#6F916F"/>
  <path d="M12.487,8.183C12.487,7.925 12.268,7.715 11.999,7.715C11.729,7.715 11.51,7.925 11.51,8.183V11.532L8.201,11.532C7.931,11.532 7.713,11.742 7.713,12.001C7.713,12.259 7.931,12.469 8.201,12.469L11.51,12.469V15.818C11.51,16.076 11.729,16.286 11.999,16.286C12.268,16.286 12.487,16.076 12.487,15.818V12.469L15.796,12.469C16.066,12.469 16.284,12.259 16.284,12.001C16.284,11.742 16.066,11.532 15.796,11.532L12.487,11.532V8.183Z" fill="#ffffff"/>
</svg>
