<svg width="48" height="32" viewBox="0 0 48 32" fill="none" xmlns="http://www.w3.org/2000/svg">
<path d="M16,0L32,0A16,16 0,0 1,48 16L48,16A16,16 0,0 1,32 32L16,32A16,16 0,0 1,0 16L0,16A16,16 0,0 1,16 0z" fill="#6F916F"/>
<path d="M29.001,12.417C29.392,12.027 29.393,11.393 29.002,11.002L24.207,6.207C24.074,6.075 23.895,6 23.707,6C23.317,6 23,6.317 23,6.707V13.59L19.115,9.705C18.726,9.316 18.094,9.316 17.705,9.705C17.316,10.094 17.316,10.726 17.705,11.115L22.59,16L17.705,20.885C17.316,21.274 17.316,21.906 17.705,22.295C18.094,22.684 18.726,22.684 19.115,22.295L23,18.41V25.293C23,25.683 23.317,26 23.707,26C23.895,26 24.074,25.926 24.207,25.793L29.002,20.998C29.393,20.607 29.392,19.973 29.001,19.583L25.41,16L29.001,12.417ZM25,9.83L26.88,11.71L25,13.59V9.83ZM26.88,20.29L25,22.17V18.41L26.88,20.29Z" fill="#ffffff"/>
</svg>

