<svg width="16" height="16" viewBox="0 0 16 16" xmlns="http://www.w3.org/2000/svg">
  <!-- PARITY: Converted from reef-b-app's ic_cold_white_light_thumb.xml -->
  <!-- 16×16dp cold white light thumb icon -->
  <circle cx="8" cy="8" r="8" fill="#ffffff"/>
  <path d="M8,15C11.866,15 15,11.866 15,8C15,4.134 11.866,1 8,1C4.134,1 1,4.134 1,8C1,11.866 4.134,15 8,15ZM8,16C12.418,16 16,12.418 16,8C16,3.582 12.418,0 8,0C3.582,0 0,3.582 0,8C0,12.418 3.582,16 8,16Z" fill="#000000" fill-opacity="0.75" fill-rule="evenodd"/>
  <circle cx="8" cy="8" r="5" fill="#55DDFF"/>
</svg>

