<svg width="48" height="32" viewBox="0 0 48 32" fill="none" xmlns="http://www.w3.org/2000/svg">
<path d="M16,0L32,0A16,16 0,0 1,48 16L48,16A16,16 0,0 1,32 32L16,32A16,16 0,0 1,0 16L0,16A16,16 0,0 1,16 0z" fill="#F7F7F7"/>
<path d="M31.099,25.9L27.599,22.4L26.15,20.951L25,19.801L21.899,16.7L14.099,8.9C13.916,8.717 13.824,8.483 13.824,8.2C13.824,7.917 13.916,7.683 14.099,7.5C14.283,7.317 14.516,7.225 14.799,7.225C15.083,7.225 15.316,7.317 15.499,7.5L32.499,24.5C32.682,24.683 32.774,24.917 32.774,25.2C32.774,25.483 32.682,25.717 32.499,25.9C32.316,26.083 32.083,26.175 31.799,26.175C31.516,26.175 31.282,26.083 31.099,25.9Z" fill="#000000"/>
<path d="M19.099,22.3L22.999,17.8L21.899,16.7L17.699,20.9C17.515,21.083 17.424,21.317 17.424,21.6C17.424,21.883 17.515,22.117 17.699,22.3C17.882,22.483 18.115,22.575 18.399,22.575C18.682,22.575 18.916,22.483 19.099,22.3Z" fill="#CBCBCB"/>
<path d="M24.874,25.125L27.599,22.4L26.15,20.951L24.999,22.15L25,19.801L22.999,17.8V24.575C22.999,24.858 23.086,25.092 23.261,25.275C23.436,25.458 23.657,25.55 23.924,25.55C24.09,25.55 24.257,25.513 24.424,25.438C24.59,25.363 24.74,25.258 24.874,25.125Z" fill="#CBCBCB"/>
<path d="M26.1,15.3L24.7,13.9L26.9,11.7L25,9.85V14.2L23,12.2V7.425C23,7.142 23.087,6.908 23.262,6.725C23.437,6.542 23.658,6.45 23.925,6.45C24.092,6.45 24.258,6.487 24.425,6.562C24.592,6.637 24.742,6.742 24.875,6.875L29,11C29.1,11.1 29.171,11.208 29.213,11.325C29.254,11.442 29.275,11.567 29.275,11.7C29.275,11.833 29.254,11.958 29.213,12.075C29.171,12.192 29.1,12.3 29,12.4L26.1,15.3Z" fill="#CBCBCB"/>
</svg>

