<svg width="24" height="24" viewBox="0 0 24 24" xmlns="http://www.w3.org/2000/svg">
  <path d="M19.161,9.05L14.911,4.85L16.311,3.45C16.695,3.067 17.166,2.875 17.724,2.875C18.282,2.875 18.753,3.067 19.136,3.45L20.536,4.85C20.92,5.233 21.12,5.696 21.136,6.238C21.153,6.779 20.97,7.242 20.586,7.625L19.161,9.05ZM3.861,21.125C3.578,21.125 3.341,21.029 3.149,20.837C2.957,20.646 2.861,20.408 2.861,20.125V17.3C2.861,17.167 2.886,17.038 2.936,16.913C2.986,16.788 3.061,16.675 3.161,16.575L13.461,6.275L17.711,10.525L7.411,20.825C7.311,20.925 7.199,21 7.074,21.05C6.949,21.1 6.82,21.125 6.686,21.125H3.861Z" fill="#000000" fill-opacity="0.75"/>
</svg>

