<svg width="20" height="20" viewBox="0 0 20 20" xmlns="http://www.w3.org/2000/svg">
  <path d="M10,18C14.418,18 18,14.418 18,10C18,5.582 14.418,2 10,2C5.582,2 2,5.582 2,10C2,14.418 5.582,18 10,18ZM14.635,11.708C14.896,11.592 15.193,11.834 15.063,12.088C14.208,13.765 12.487,14.936 10.472,14.994C7.534,15.079 5.083,12.766 4.998,9.828C4.939,7.759 6.067,5.933 7.766,5.003C8.015,4.866 8.266,5.156 8.158,5.419C7.908,6.029 7.779,6.7 7.799,7.402C7.876,10.087 10.115,12.201 12.8,12.123C13.453,12.104 14.073,11.958 14.635,11.708Z" fill="#000000" fill-opacity="0.75" fill-rule="evenodd"/>
</svg>

