<svg width="12" height="12" viewBox="0 0 12 12" fill="none" xmlns="http://www.w3.org/2000/svg">
<clipPath id="clip0">
<path d="M5.848,0L6.152,0A5.848,5.848 0,0 1,12 5.848L12,6.152A5.848,5.848 0,0 1,6.152 12L5.848,12A5.848,5.848 0,0 1,0 6.152L0,5.848A5.848,5.848 0,0 1,5.848 0z"/>
</clipPath>
<g clip-path="url(#clip0)">
<path d="M6,12C9.314,12 12,9.314 12,6C12,2.686 9.314,0 6,0C2.686,0 0,2.686 0,6C0,9.314 2.686,12 6,12ZM3.371,8.725H2.25V3.41H3.158L3.256,4.154H3.283C3.738,3.671 4.27,3.274 4.928,3.274C5.719,3.274 6.164,3.642 6.387,4.25C6.918,3.7 7.459,3.274 8.127,3.274C9.238,3.274 9.75,4.038 9.75,5.381V8.725H8.639V5.526C8.639,4.599 8.357,4.241 7.76,4.241C7.393,4.241 7.006,4.473 6.561,4.956V8.725H5.449V5.526C5.449,4.599 5.168,4.241 4.561,4.241C4.203,4.241 3.797,4.473 3.371,4.956V8.725Z" fill="#6F916F" fill-rule="evenodd"/>
</g>
</svg>
