<svg width="20" height="20" viewBox="0 0 20 20" xmlns="http://www.w3.org/2000/svg">
  <!-- PARITY: Converted from reef-b-app's ic_monday_select.xml -->
  <!-- 20×20dp Monday selected icon -->
  <path d="M10,0.5L10,0.5A9.5,9.5 0,0 1,19.5 10L19.5,10A9.5,9.5 0,0 1,10 19.5L10,19.5A9.5,9.5 0,0 1,0.5 10L0.5,10A9.5,9.5 0,0 1,10 0.5z" fill="#000000" fill-opacity="0.5"/>
  <path d="M6.172,15H7.432V10.644C7.432,9.84 7.324,8.712 7.252,7.908H7.3L8.008,9.948L9.544,14.16H10.408L11.943,9.948L12.663,7.908H12.712C12.639,8.712 12.531,9.84 12.531,10.644V15H13.816V6.168H12.208L10.611,10.644C10.42,11.22 10.252,11.82 10.035,12.42H9.988C9.784,11.82 9.604,11.22 9.388,10.644L7.78,6.168H6.172V15Z" fill="#ffffff"/>
  <circle cx="10" cy="10" r="9.5" fill="none" stroke="#000000" stroke-width="1"/>
</svg>

