<svg xmlns="http://www.w3.org/2000/svg" width="24" height="24" viewBox="0 0 24 24">
  <g>
    <clipPath id="clip0">
      <path d="M0,0h24v24h-24z"/>
    </clipPath>
    <path d="M6.237,17.274C6.33,17.305 6.417,17.355 6.491,17.419C6.565,17.484 6.626,17.563 6.67,17.651C6.714,17.739 6.741,17.835 6.748,17.933C6.754,18.031 6.742,18.13 6.711,18.224L5.961,20.474C5.932,20.571 5.885,20.661 5.821,20.739C5.757,20.817 5.678,20.881 5.589,20.928C5.499,20.975 5.401,21.003 5.301,21.011C5.2,21.019 5.099,21.007 5.003,20.975C4.908,20.943 4.819,20.892 4.744,20.826C4.668,20.759 4.607,20.677 4.564,20.586C4.52,20.495 4.496,20.396 4.491,20.296C4.487,20.195 4.503,20.094 4.539,20L5.289,17.75C5.351,17.561 5.486,17.405 5.664,17.316C5.842,17.226 6.048,17.212 6.237,17.274ZM10.737,17.274C10.83,17.305 10.917,17.355 10.991,17.419C11.065,17.484 11.126,17.563 11.17,17.651C11.215,17.739 11.241,17.835 11.248,17.933C11.255,18.031 11.242,18.13 11.211,18.224L9.711,22.724C9.682,22.821 9.635,22.911 9.571,22.989C9.507,23.067 9.428,23.131 9.339,23.178C9.249,23.225 9.151,23.253 9.051,23.261C8.95,23.269 8.849,23.257 8.753,23.225C8.658,23.193 8.569,23.142 8.494,23.076C8.418,23.009 8.357,22.927 8.314,22.836C8.27,22.745 8.246,22.646 8.241,22.546C8.237,22.445 8.253,22.344 8.289,22.25L9.789,17.75C9.851,17.561 9.986,17.405 10.164,17.316C10.342,17.226 10.548,17.212 10.737,17.274ZM15.237,17.274C15.33,17.305 15.417,17.355 15.491,17.419C15.565,17.484 15.626,17.563 15.67,17.651C15.715,17.739 15.741,17.835 15.748,17.933C15.755,18.031 15.742,18.13 15.711,18.224L14.961,20.474C14.932,20.571 14.885,20.661 14.821,20.739C14.757,20.817 14.678,20.881 14.589,20.928C14.499,20.975 14.401,21.003 14.301,21.011C14.2,21.019 14.099,21.007 14.003,20.975C13.908,20.943 13.819,20.892 13.744,20.826C13.668,20.759 13.607,20.677 13.564,20.586C13.52,20.495 13.496,20.396 13.491,20.296C13.487,20.195 13.503,20.094 13.539,20L14.289,17.75C14.351,17.561 14.486,17.405 14.664,17.316C14.842,17.226 15.048,17.212 15.237,17.274ZM19.737,17.274C19.83,17.305 19.917,17.355 19.991,17.419C20.065,17.484 20.126,17.563 20.17,17.651C20.215,17.739 20.241,17.835 20.248,17.933C20.254,18.031 20.242,18.13 20.211,18.224L18.711,22.724C18.682,22.821 18.635,22.911 18.571,22.989C18.507,23.067 18.428,23.131 18.339,23.178C18.249,23.225 18.152,23.253 18.051,23.261C17.95,23.269 17.849,23.257 17.753,23.225C17.658,23.193 17.569,23.142 17.494,23.076C17.418,23.009 17.357,22.927 17.314,22.836C17.27,22.745 17.246,22.646 17.241,22.546C17.237,22.445 17.253,22.344 17.289,22.25L18.789,17.75C18.851,17.561 18.986,17.405 19.164,17.316C19.342,17.226 19.548,17.212 19.737,17.274ZM20.107,6.777C19.796,5.207 18.99,3.778 17.808,2.698C16.626,1.618 15.13,0.945 13.538,0.777C11.946,0.609 10.341,0.954 8.96,1.763C7.578,2.571 6.492,3.801 5.859,5.271C5.149,5.189 4.43,5.253 3.746,5.459C3.062,5.665 2.427,6.008 1.88,6.468C1.333,6.928 0.886,7.494 0.565,8.133C0.245,8.771 0.058,9.468 0.017,10.182C-0.025,10.895 0.08,11.609 0.324,12.281C0.568,12.952 0.947,13.567 1.436,14.087C1.926,14.607 2.517,15.021 3.173,15.305C3.829,15.589 4.535,15.736 5.25,15.737H19.5C20.641,15.738 21.741,15.305 22.575,14.526C23.41,13.747 23.917,12.68 23.994,11.541C24.072,10.402 23.713,9.276 22.991,8.392C22.27,7.507 21.239,6.93 20.107,6.777Z" fill="#000000"/>
  </g>
</svg>

