<svg width="24" height="24" viewBox="0 0 24 24" xmlns="http://www.w3.org/2000/svg">
  <path d="M20.817,11.186C20.581,10.034 20.121,8.94 19.462,7.967C18.815,7.009 17.99,6.184 17.032,5.537C16.058,4.878 14.965,4.418 13.813,4.182C13.208,4.059 12.592,3.999 11.975,4.002V2L8,5L11.975,8V6.002C12.459,6 12.943,6.046 13.41,6.142C14.305,6.325 15.155,6.683 15.912,7.195C16.658,7.698 17.301,8.341 17.804,9.087C18.585,10.242 19.002,11.605 19,13C19,13.936 18.813,14.862 18.45,15.725C18.274,16.14 18.058,16.538 17.806,16.913C17.553,17.285 17.266,17.633 16.948,17.952C15.98,18.918 14.751,19.581 13.412,19.859C12.481,20.047 11.521,20.047 10.59,19.859C9.695,19.675 8.844,19.317 8.087,18.805C7.341,18.302 6.7,17.66 6.197,16.915C5.417,15.759 5,14.395 5,13H3C3.001,14.794 3.537,16.546 4.539,18.034C5.187,18.99 6.011,19.814 6.967,20.462C8.453,21.468 10.206,22.003 12,22C12.609,22 13.217,21.939 13.814,21.817C14.965,21.579 16.058,21.119 17.032,20.462C17.51,20.14 17.956,19.772 18.363,19.363C18.771,18.954 19.139,18.508 19.463,18.031C20.468,16.546 21.003,14.793 21,13C21,12.391 20.939,11.783 20.817,11.186Z" fill="#000000"/>
</svg>

