<svg width="20" height="20" viewBox="0 0 20 20" xmlns="http://www.w3.org/2000/svg">
  <path d="M6.518,11.296C6.795,9.622 8.249,8.346 10.001,8.346C11.951,8.346 13.532,9.927 13.532,11.877C13.532,11.906 13.535,11.935 13.542,11.963C12.594,12.562 11.731,13.27 10.998,14.043C9.739,12.829 8.216,11.881 6.518,11.296ZM5.748,11.059C6.13,9.058 7.889,7.546 10.001,7.546C12.269,7.546 14.13,9.289 14.317,11.509C15.606,10.809 17.022,10.315 18.469,10.124C18.688,10.095 18.889,10.249 18.918,10.468C18.947,10.687 18.793,10.888 18.574,10.917C15.909,11.27 13.328,12.738 11.557,14.617C12.214,15.339 12.785,16.14 13.255,17.003C13.361,17.197 13.289,17.44 13.095,17.545C12.901,17.651 12.658,17.579 12.552,17.385C12.057,16.476 11.441,15.639 10.724,14.899C8.757,12.867 6.035,11.56 2.986,11.441C2.424,11.419 1.87,11.438 1.327,11.495C1.107,11.519 0.91,11.359 0.887,11.14C0.864,10.92 1.023,10.723 1.243,10.7C1.824,10.638 2.417,10.618 3.018,10.641C3.961,10.678 4.874,10.821 5.748,11.059Z" fill="#000000" fill-opacity="0.75" fill-rule="evenodd"/>
  <path d="M10,2.405C10.22,2.405 10.4,2.584 10.4,2.805V6.604C10.4,6.825 10.22,7.004 10,7.004C9.779,7.004 9.6,6.825 9.6,6.604V2.805C9.6,2.584 9.779,2.405 10,2.405Z" fill="#000000" fill-opacity="0.75" fill-rule="evenodd"/>
  <path d="M6.697,3.001C6.904,2.924 7.134,3.029 7.212,3.237L8.536,6.797C8.613,7.004 8.508,7.234 8.301,7.311C8.094,7.388 7.864,7.283 7.787,7.076L6.462,3.516C6.385,3.308 6.49,3.078 6.697,3.001Z" fill="#000000" fill-opacity="0.75" fill-rule="evenodd"/>
  <path d="M3.494,4.996C3.654,4.844 3.908,4.851 4.059,5.012L6.669,7.772C6.821,7.933 6.813,8.186 6.653,8.338C6.492,8.49 6.239,8.482 6.087,8.322L3.478,5.561C3.326,5.401 3.333,5.147 3.494,4.996Z" fill="#000000" fill-opacity="0.75" fill-rule="evenodd"/>
  <path d="M1.231,8.302C1.315,8.097 1.548,7.999 1.753,8.082L5.27,9.517C5.475,9.6 5.573,9.834 5.489,10.038C5.406,10.243 5.173,10.341 4.968,10.258L1.45,8.823C1.246,8.74 1.148,8.506 1.231,8.302Z" fill="#000000" fill-opacity="0.75" fill-rule="evenodd"/>
  <path d="M13.303,3.001C13.096,2.924 12.866,3.029 12.788,3.237L11.464,6.797C11.387,7.004 11.492,7.234 11.699,7.311C11.906,7.388 12.136,7.283 12.213,7.076L13.538,3.516C13.615,3.308 13.51,3.078 13.303,3.001Z" fill="#000000" fill-opacity="0.75" fill-rule="evenodd"/>
  <path d="M16.506,4.996C16.346,4.844 16.093,4.851 15.941,5.012L13.331,7.772C13.179,7.933 13.187,8.186 13.347,8.338C13.508,8.49 13.761,8.482 13.913,8.322L16.522,5.561C16.674,5.401 16.667,5.147 16.506,4.996Z" fill="#000000" fill-opacity="0.75" fill-rule="evenodd"/>
  <path d="M18.769,8.302C18.685,8.097 18.452,7.999 18.247,8.082L14.73,9.517C14.525,9.6 14.427,9.834 14.511,10.038C14.594,10.243 14.828,10.341 15.032,10.258L18.549,8.823C18.754,8.74 18.852,8.506 18.769,8.302Z" fill="#000000" fill-opacity="0.75" fill-rule="evenodd"/>
</svg>

