<svg width="20" height="20" viewBox="0 0 20 20" xmlns="http://www.w3.org/2000/svg">
  <!-- PARITY: Converted from reef-b-app's ic_sunday_unselect.xml -->
  <!-- 20×20dp Sunday unselected icon -->
  <path d="M10.034,15.168C11.966,15.168 13.142,14.004 13.142,12.588C13.142,11.292 12.386,10.644 11.342,10.2L10.13,9.696C9.41,9.396 8.702,9.108 8.702,8.352C8.702,7.656 9.278,7.224 10.178,7.224C10.958,7.224 11.582,7.524 12.134,8.004L12.854,7.128C12.194,6.444 11.222,6.012 10.178,6.012C8.498,6.012 7.286,7.056 7.286,8.448C7.286,9.732 8.222,10.404 9.074,10.752L10.298,11.292C11.114,11.64 11.714,11.892 11.714,12.696C11.714,13.452 11.114,13.944 10.058,13.944C9.206,13.944 8.33,13.536 7.706,12.9L6.89,13.872C7.694,14.688 8.81,15.168 10.034,15.168Z" fill="#000000" fill-opacity="0.5"/>
  <circle cx="10" cy="10" r="9.5" fill="none" stroke="#000000" stroke-opacity="0.2" stroke-width="1"/>
</svg>
