<svg width="16" height="16" viewBox="0 0 16 16" xmlns="http://www.w3.org/2000/svg">
  <path d="M16,8C16,12.418 12.418,16 8,16C3.582,16 0,12.418 0,8C0,3.582 3.582,0 8,0C12.418,0 16,3.582 16,8Z" fill="#ffffff"/>
  <path d="M8,15C11.866,15 15,11.866 15,8C15,4.134 11.866,1 8,1C4.134,1 1,4.134 1,8C1,11.866 4.134,15 8,15ZM8,16C12.418,16 16,12.418 16,8C16,3.582 12.418,0 8,0C3.582,0 0,3.582 0,8C0,12.418 3.582,16 8,16Z" fill="#000000" fill-opacity="0.75" fill-rule="evenodd"/>
  <path d="M8,8m-5,0a5,5 0,1 1,10 0a5,5 0,1 1,-10 0" fill="#5599FF"/>
</svg>

