<svg width="24" height="24" viewBox="0 0 24 24" xmlns="http://www.w3.org/2000/svg">
  <path d="M15.99,18.944C16.15,19.28 16.007,19.683 15.671,19.844C14.549,20.378 13.306,20.676 12,20.676C10.7,20.676 9.463,20.381 8.345,19.851C8.008,19.692 7.865,19.289 8.024,18.952C8.184,18.615 8.586,18.472 8.923,18.632C9.866,19.079 10.906,19.326 12,19.326C13.098,19.326 14.143,19.076 15.09,18.625C15.427,18.465 15.83,18.607 15.99,18.944Z" fill="#000000" fill-rule="evenodd"/>
  <path d="M12,2.971C8.774,2.971 6.159,5.586 6.159,8.812V14.609C6.159,14.982 5.857,15.284 5.484,15.284L5.161,15.284C4.982,15.284 4.836,15.429 4.836,15.609L4.836,15.931C4.836,16.111 4.982,16.256 5.161,16.256H5.484C5.488,16.256 5.491,16.256 5.494,16.256H18.507C18.51,16.256 18.513,16.256 18.516,16.256H18.839C19.018,16.256 19.164,16.111 19.164,15.931L19.164,15.609C19.164,15.429 19.018,15.284 18.839,15.284L18.516,15.284C18.143,15.284 17.841,14.982 17.841,14.609V8.812C17.841,5.586 15.226,2.971 12,2.971ZM18.526,17.606C18.523,17.606 18.52,17.606 18.516,17.606H5.484C5.481,17.606 5.478,17.606 5.475,17.606H5.161C4.237,17.606 3.487,16.857 3.486,15.932L3.486,15.609C3.486,14.805 4.053,14.132 4.809,13.971V8.812C4.809,4.84 8.029,1.621 12,1.621C15.972,1.621 19.191,4.84 19.191,8.812V13.971C19.947,14.133 20.513,14.804 20.514,15.608L20.514,15.931C20.514,16.856 19.764,17.606 18.839,17.606H18.526Z" fill="#000000" fill-rule="evenodd"/>
</svg>

