<svg width="20" height="20" viewBox="0 0 20 20" xmlns="http://www.w3.org/2000/svg">
  <!-- PARITY: Converted from reef-b-app's ic_wednesday_unselect.xml -->
  <!-- 20×20dp Wednesday unselected icon -->
  <path d="M6.703,15H8.395L9.559,10.092C9.691,9.408 9.847,8.748 9.979,8.076H10.027C10.147,8.748 10.279,9.408 10.435,10.092L11.611,15H13.339L15.079,6.168H13.747L12.907,10.764C12.763,11.7 12.607,12.648 12.463,13.608H12.403C12.187,12.648 12.007,11.688 11.791,10.764L10.651,6.168H9.415L8.287,10.764C8.083,11.7 7.879,12.648 7.687,13.608H7.639C7.483,12.648 7.327,11.7 7.159,10.764L6.343,6.168H4.903L6.703,15Z" fill="#000000" fill-opacity="0.5"/>
  <circle cx="10" cy="10" r="9.5" fill="none" stroke="#000000" stroke-opacity="0.2" stroke-width="1"/>
</svg>
