<svg width="20" height="20" viewBox="0 0 20 20" xmlns="http://www.w3.org/2000/svg">
  <path d="M10.001,4.166C9.765,4.166 9.567,4.086 9.407,3.926C9.247,3.767 9.167,3.569 9.167,3.333V1.666C9.167,1.43 9.247,1.232 9.407,1.072C9.567,0.913 9.765,0.833 10.001,0.833C10.237,0.833 10.435,0.913 10.595,1.072C10.754,1.232 10.834,1.43 10.834,1.666V3.333C10.834,3.569 10.754,3.767 10.595,3.926C10.435,4.086 10.237,4.166 10.001,4.166ZM14.126,5.875C13.973,5.722 13.896,5.531 13.896,5.301C13.896,5.072 13.973,4.875 14.126,4.708L15.292,3.521C15.459,3.354 15.657,3.271 15.886,3.271C16.115,3.271 16.313,3.354 16.48,3.521C16.633,3.673 16.709,3.868 16.709,4.104C16.709,4.34 16.633,4.534 16.48,4.687L15.292,5.875C15.139,6.027 14.945,6.104 14.709,6.104C14.473,6.104 14.278,6.027 14.126,5.875ZM16.667,10.833C16.431,10.833 16.233,10.753 16.074,10.593C15.914,10.434 15.834,10.236 15.834,10C15.834,9.764 15.914,9.566 16.074,9.406C16.233,9.246 16.431,9.166 16.667,9.166H18.334C18.57,9.166 18.768,9.246 18.927,9.406C19.087,9.566 19.167,9.764 19.167,10C19.167,10.236 19.087,10.434 18.927,10.593C18.768,10.753 18.57,10.833 18.334,10.833H16.667ZM10.001,19.166C9.765,19.166 9.567,19.086 9.407,18.926C9.247,18.767 9.167,18.569 9.167,18.333V16.666C9.167,16.43 9.247,16.233 9.407,16.073C9.567,15.913 9.765,15.833 10.001,15.833C10.237,15.833 10.435,15.913 10.595,16.073C10.754,16.233 10.834,16.43 10.834,16.666V18.333C10.834,18.569 10.754,18.767 10.595,18.926C10.435,19.086 10.237,19.166 10.001,19.166ZM4.709,5.875L3.521,4.708C3.355,4.541 3.271,4.34 3.271,4.104C3.271,3.868 3.355,3.673 3.521,3.521C3.674,3.368 3.869,3.291 4.105,3.291C4.341,3.291 4.535,3.368 4.688,3.521L5.876,4.708C6.028,4.861 6.105,5.055 6.105,5.291C6.105,5.527 6.028,5.722 5.876,5.875C5.709,6.027 5.515,6.104 5.292,6.104C5.07,6.104 4.876,6.027 4.709,5.875ZM15.292,16.479L14.126,15.291C13.973,15.125 13.896,14.927 13.896,14.698C13.896,14.469 13.973,14.278 14.126,14.125C14.278,13.972 14.469,13.896 14.699,13.896C14.928,13.896 15.126,13.972 15.292,14.125L16.48,15.291C16.646,15.444 16.726,15.639 16.719,15.875C16.712,16.111 16.633,16.312 16.48,16.479C16.313,16.646 16.112,16.729 15.876,16.729C15.639,16.729 15.445,16.646 15.292,16.479ZM1.667,10.833C1.431,10.833 1.233,10.753 1.074,10.593C0.914,10.434 0.834,10.236 0.834,10C0.834,9.764 0.914,9.566 1.074,9.406C1.233,9.246 1.431,9.166 1.667,9.166H3.334C3.57,9.166 3.768,9.246 3.928,9.406C4.088,9.566 4.167,9.764 4.167,10C4.167,10.236 4.088,10.434 3.928,10.593C3.768,10.753 3.57,10.833 3.334,10.833H1.667ZM3.521,16.479C3.369,16.326 3.292,16.132 3.292,15.896C3.292,15.659 3.369,15.465 3.521,15.312L4.709,14.125C4.862,13.972 5.053,13.896 5.282,13.896C5.511,13.896 5.709,13.972 5.876,14.125C6.042,14.291 6.126,14.489 6.126,14.719C6.126,14.948 6.042,15.146 5.876,15.312L4.709,16.479C4.542,16.646 4.341,16.729 4.105,16.729C3.869,16.729 3.674,16.646 3.521,16.479ZM10.001,15C8.612,15 7.431,14.514 6.459,13.541C5.487,12.569 5.001,11.389 5.001,10C5.001,8.611 5.487,7.43 6.459,6.458C7.431,5.486 8.612,5 10.001,5C11.389,5 12.57,5.486 13.542,6.458C14.514,7.43 15.001,8.611 15.001,10C15.001,11.389 14.514,12.569 13.542,13.541C12.57,14.514 11.389,15 10.001,15Z" fill="#000000" fill-opacity="0.75"/>
</svg>

